<?xml version="1.0" encoding="utf-8"?>
<!-- Generator: Adobe Illustrator 24.0.1, SVG Export Plug-In . SVG Version: 6.00 Build 0)  -->
<svg version="1.1" id="Calque_1" xmlns="http://www.w3.org/2000/svg" xmlns:xlink="http://www.w3.org/1999/xlink" x="0px" y="0px"
	 viewBox="0 0 200 200" style="enable-background:new 0 0 200 200;" xml:space="preserve">
<style type="text/css">
	.st0{fill:#FEEEE1;}
</style>
<g>
	<g>
		<path class="st0" d="M9.1,38.2c10.3-1.9,20.6-3.6,30.9-5c-0.6,0.1-1.3,0.2-1.9,0.3c20.2-2.7,40.4-4.4,60.8-5
			c20.2-0.6,40.5-0.1,60.6,1.4c11.4,0.9,22.9,2.1,34.2,3.6c-0.6-0.1-1.3-0.2-1.9-0.3c0.2,0,0.3,0,0.5,0.1c2,0.3,3.8,0.3,5.6-0.7
			c1.5-0.9,3-2.6,3.4-4.4c0.4-1.9,0.3-4-0.7-5.6c-0.9-1.5-2.5-3.1-4.4-3.4c-24.8-3.4-49.8-5.3-74.9-5.5c-24.5-0.2-49.1,1.1-73.5,4
			c-14.3,1.7-28.5,3.8-42.6,6.5c-3.8,0.7-6.2,5.4-5.1,9C1.5,37.1,5.1,39,9.1,38.2L9.1,38.2z"/>
	</g>
</g>
<g>
	<g>
		<path class="st0" d="M12.9,100.6c23.5-2.5,47.2-1.5,70.6,0.7c23.5,2.2,46.8,5.5,70.3,7.5c12.8,1.1,25.6,1.9,38.5,1.7
			c3.8,0,7.5-3.3,7.3-7.3c-0.2-3.9-3.2-7.3-7.3-7.3c-23,0.2-45.9-2.3-68.7-4.9c-23.5-2.7-47.1-5.6-70.8-6.4
			c-13.3-0.4-26.6-0.1-39.8,1.3c-2,0.2-3.7,0.7-5.2,2.1c-1.3,1.3-2.2,3.3-2.1,5.2C5.8,97,8.8,101.1,12.9,100.6L12.9,100.6z"/>
	</g>
</g>
<g>
	<g>
		<path class="st0" d="M22.4,175.5c21.4-1.5,42.9-2.2,64.4-2c21.4,0.2,42.8,1.2,64.1,3.1c12.1,1.1,24.1,2.4,36.1,4
			c-0.6-0.1-1.3-0.2-1.9-0.3c0.8,0.1,1.6,0.2,2.5,0.3c2,0.3,3.8,0.3,5.6-0.7c1.5-0.9,3-2.6,3.4-4.4c0.4-1.9,0.3-4-0.7-5.6
			c-1-1.5-2.5-3.1-4.4-3.4c-22.2-3-44.5-5.3-66.9-6.5c-21.7-1.2-43.4-1.5-65.1-1c-12.3,0.3-24.7,0.9-37,1.8c-2,0.1-3.7,0.7-5.2,2.1
			c-1.3,1.3-2.2,3.3-2.1,5.2C15.3,171.9,18.3,175.8,22.4,175.5L22.4,175.5z"/>
	</g>
</g>
</svg>
